<?xml version="1.0" encoding="utf-8" ?><svg xmlns="http://www.w3.org/2000/svg" xmlns:xlink="http://www.w3.org/1999/xlink" width="1021" height="369" viewBox="0 0 1021 369"><path fill="#FEFEFE" d="M593.327 118.724C599.214 118.909 600.712 120.249 605.537 123.469C614.267 122.403 641.255 116.132 648.389 120.762C661.118 129.021 674.959 132.271 667.09 150.34C659.276 168.28 648.062 173.218 631.588 180.385C638.896 184.667 647.1 187.338 654.442 191.799C659.345 194.777 665.492 199.267 666.848 205.225C668.265 211.449 664.272 215.141 661.058 219.738C659.785 221.558 658.894 223.65 657.709 225.533C654.861 230.059 648.985 231.216 644.127 232.293C628.833 235.685 573.737 238.615 561.791 230.7C559.714 229.325 559.313 227.528 558.814 225.252L558.306 224.959L556.212 226.805C551.649 229.8 531.334 236.543 528.365 229.819C528.065 229.142 536.114 203.978 536.951 202.045C540.782 198.51 548.609 198.38 553.759 197.864C559.949 192.062 578.568 155.898 581.284 147.05C570.26 150.25 551.337 156.533 545.001 166.277C544.785 169.888 546.264 174.279 544.853 177.681C544.49 178.557 543.775 179.079 542.89 179.414C540.197 180.435 537.248 179.716 534.737 178.526C529.465 176.028 523.344 170.387 521.429 164.753C520.577 162.247 520.661 159.561 521.863 157.182C527.644 145.747 572.885 131.845 586.802 127.403C588.392 123.112 588.69 120.294 593.327 118.724ZM563.554 216.316C581.517 211.093 578.655 218.337 595.011 220.931C602.413 222.105 616.042 220.747 623.79 220.282C632.843 219.034 656.806 217.365 636.941 204.374C625.73 197.042 611.392 191.213 598.78 186.898C597.953 186.639 590.819 186.478 589.332 186.406C586.823 184.906 586.148 184.409 584.028 182.399C577.771 192.268 570.351 207.128 563.554 216.316ZM588.918 172.869C596.151 169.533 599.684 168.32 607.605 170.49C609.551 171.123 611.916 171.958 613.851 172.479C624.695 169.517 637.249 162.416 642.553 152.28C652.37 133.518 643.381 135.166 628.827 135.74C623.918 136.536 606.223 138.398 604.588 141.619C599.999 150.66 592.95 163.709 588.918 172.869Z"/><path fill="#FEFEFE" d="M98.7254 117.339C106.945 116.885 109.707 117.698 117.252 120.483C126.796 117.243 142.003 120.221 138.211 133.741C134.967 145.306 132.248 157.158 117.701 156.429C114.949 156.464 102.339 155.121 105.182 150.005C107.297 146.749 111.678 144.016 112.3 139.98C112.663 137.624 113.629 134.77 111.833 132.896C88.2943 130.368 35.8835 172.945 31.3781 197.941C30.1865 204.551 34.0648 211.094 40.5697 211.554C59.3553 212.882 89.6595 195.109 104.028 185.037C97.8587 184.932 77.5595 186.575 73.7003 181.941C61.1747 166.9 87.6624 172.041 94.1836 172.207C103.602 172.446 112.262 171.956 121.45 171.435C124.362 169.282 127.935 166.304 131.695 167.582C136.802 169.317 152.233 171.098 151.149 178.927C150.406 184.293 142.266 182.08 138.011 184.854L137.865 184.951C134.249 190.089 132.611 197.054 129.89 203.007C123.453 217.095 115.152 243.252 101.826 251.566C96.8425 254.675 87.3394 253.442 82.0901 251.5C78.4044 250.148 64.2761 245.397 63.2806 241.742C60.2028 230.441 80.0807 238.743 83.0908 236.488C93.4808 228.705 103.954 211.312 108.121 199.581C77.7992 218.008 48.9663 237.762 15.7804 216.14C-0.482206 205.545 6.79046 189.351 15.3928 176.727C33.7272 149.823 66.6553 124.097 98.7254 117.339Z"/><path fill="#FEFEFE" d="M727.944 160.761C738.04 159.246 737.142 164.588 737.722 171.697C740.212 202.206 717.457 201.642 693.688 199.934C692.048 203.007 684.904 220.634 690.132 221.473C704.402 223.764 721.77 205.685 733.262 201.413L733.488 201.331L738.536 202.423C739.098 201.535 739.676 200.658 740.27 199.791C748.986 187.077 770.455 165.596 786.298 162.361C794.374 160.711 800.914 164.893 807.212 169.3C813.7 164.845 815.814 166.082 822.857 168.522C832.972 172.028 827.144 180.802 823.922 187.382C821.118 193.106 818.34 198.945 815.654 204.826L815.833 204.717C818.738 202.983 823.163 200.381 826.38 202.47C828.302 206.515 823.394 211.441 821.003 214.193C817.856 218.219 810.074 231.737 806.788 234.071C802.692 236.982 786.932 232.111 788.329 223.82C789.367 217.65 791.819 212.163 793.93 205.821C782.728 214.718 772.859 222.73 760.041 230.649C751.067 236.193 738.48 237.098 730.922 227.532C728.754 224.788 730.215 219.034 731.105 215.71C724.955 221.219 714.469 228.518 706.991 231.738C698.353 235.457 689.977 235.661 681.431 231.78C676.8 229.678 669.694 227.051 667.829 221.908C665.175 214.587 671.298 202.711 674.357 195.944C669.347 189.252 674.594 188.396 680.211 186.663C687.616 175.393 699.017 160.546 714.096 161.266C719.707 161.534 722.342 161.608 727.944 160.761ZM758.466 217.591C766.666 211.718 799.273 187.139 802.157 179.095C801.509 176.099 794.837 176.363 792.335 176.578C778.479 183.409 766.641 195.462 757.18 207.491C755.127 210.102 750.714 216.558 751.467 219.953C753.909 220.993 756.313 218.904 758.466 217.591ZM702.542 189.927C707.368 189.979 712.35 190.284 716.169 186.69C719.162 183.874 719.69 178.062 718.194 174.363L717.415 174.038C712.53 175.25 700.297 185.037 701.463 189.519L702.542 189.927Z"/><path fill="#FEFEFE" d="M190.197 176.107C200.778 164.894 205.699 156.732 221.995 161.509C233.622 164.918 228.307 179.107 225.863 186.852C235.032 176.627 242.088 158.925 259.908 161.111C262.891 161.477 267.533 165.388 270.417 165.399C277.803 165.425 284.434 160.779 291.911 164.065C306.667 170.551 303.719 185.71 298.542 197.875C293.153 210.556 281.995 225.736 268.832 231.454C256.745 236.704 239.544 234.24 227.457 229.505C209.685 222.163 216.446 207.572 222.04 194.472C214.119 194.801 202.174 193.125 205.726 181.947C206.237 180.34 207.731 177.657 208.516 176.069C192.669 188.733 180.286 208.704 170.814 226.336C165.818 235.636 162.313 234.639 152.769 231.789C143.933 229.15 146.07 223.401 148.311 216.433C151.472 206.603 156.045 197.126 160.033 187.602C157.982 185.845 153.354 189.983 151.736 185.491C149.993 180.652 160.79 173.534 163.971 170.455C171.256 163.404 177.042 159.644 186.955 164.352C191.863 166.684 189.31 171.049 187.531 174.392C184.753 178.576 182.756 181.741 180.357 186.142C183.719 183.185 187.37 179.589 190.197 176.107ZM244.813 223.253C263.792 223.789 280.168 196.14 282.048 179.252C282.166 178.187 281.799 176.519 281.091 175.664C279.42 175.362 278.935 175.443 277.231 175.631C272.835 176.882 268.41 178.032 263.962 179.082C260.064 180.004 256.124 180.429 253.129 183.348C246.679 189.633 229.7 219.523 244.813 223.253Z"/><path fill="#FEFEFE" d="M359.495 122.871C363.825 122.965 379.901 125.915 377.528 133.508C376.412 137.079 368.795 135.899 366.189 137.414C358.565 141.845 351.292 155.413 347.891 163.134C358.314 163.669 368.765 163.271 379.117 161.945C387.61 150.709 390.732 135.601 403.296 125.943C411.472 119.659 433.26 124.843 431.045 134.03C428.189 137.352 422.889 135.734 420.536 137.002C412.435 141.37 404.757 155.148 401.204 163.141C404.615 163.497 421.314 162.262 422.772 164.539C430.914 177.259 401.422 174.543 394.348 174.57C388.449 185.984 379.401 206.953 378.013 219.457C381.653 218.408 383.154 217.567 386.299 215.451C390.479 212.638 399.722 205.162 403.987 211.486C405.797 218.113 385.092 231.185 379.634 233.344C374.738 234.694 371.045 234.308 366.157 232.948C362.751 231.999 357.619 230.036 355.882 226.697C352.005 219.242 369.169 184.333 372.32 175.118C360.74 173.944 352.786 174.206 341.183 174.493C335.387 184.491 325.957 208.293 324.557 219.479C326.304 218.825 327.68 218.322 329.353 217.472C334.057 215.078 344.942 204.335 349.795 210.954C350.041 211.778 350.222 212.554 350.052 213.415C348.952 218.986 339.077 226.091 334.415 229.171C328.583 233.025 322.571 234.834 315.628 233.361C311.779 232.544 305.071 230.225 302.932 226.737C298.347 219.261 315.946 184.958 318.317 175.093C315.084 175.074 309.135 174.617 307.669 171.337C304.192 163.558 321.618 162.676 326.255 161.751C335.056 149.123 341.398 124.179 359.495 122.871Z"/><path fill="#FEFEFE" d="M976.239 97.3948C982.037 97.5534 1004.75 104.705 1002.25 113.402C1000.43 119.734 986.726 111.183 980.545 115.151C962.538 126.71 951.021 149.511 940.698 167.793C936.728 175.166 932.104 187.477 929.244 194.573C940.344 183.165 950.138 173.322 964.86 165.82C973.746 161.291 989.223 162.634 994.367 172.197C998.037 179.021 991.224 194.695 988.316 202.078C990.165 201.055 993.256 199.026 995.293 199.677C1006.47 203.246 988.827 215.184 985.575 218.836C980.124 224.956 975.007 231.202 968.852 236.297C966.654 238.116 959.857 235.576 957.314 234.675C953.997 233.101 951.992 231.687 949.362 229.179C951.751 225.183 955.344 220.632 957.904 216.367C965.734 203.324 971.918 191.348 974.367 176.302C960.616 180.19 943.823 197.303 935.137 208.196C929.996 214.643 925.788 221.193 921.58 228.238C920.249 230.466 918.679 232.628 916.006 233.242C912.083 234.144 907.326 232.32 904.048 230.227C902.157 229.02 900.145 227.469 899.673 225.161C898.779 220.783 902.091 213.449 903.503 209.096C912.337 181.852 922.781 155.253 938.864 131.349C947.521 118.481 960.226 100.514 976.239 97.3948Z"/><path fill="#FEFEFE" d="M448.135 160.719C449.096 160.571 452.224 161.211 453.918 161.172C458.637 160.956 463.162 160.473 467.886 160.511C475.489 160.408 474.767 165.364 475.1 171.048C476.925 202.144 454.872 201.251 431.376 199.375C431.34 199.434 431.303 199.491 431.268 199.551C428.947 203.502 427.521 208.359 426.626 212.837C426.218 214.874 425.437 218.483 426.699 220.291C431.56 227.25 461.711 205.259 466.987 202.805C469.005 201.866 471.683 200.995 473.905 201.423C474.906 201.615 475.916 202.08 476.467 202.975C477.392 204.477 477.437 205.874 477.029 207.539C470.038 215.63 453.767 227.324 443.971 231.587C434.449 235.63 428.717 235.172 419.551 231.672C397.796 223.364 403.472 213.918 411.549 195.724C409.949 193.778 408.763 192.751 409.514 190.117C411.247 187.543 414.259 187.101 417.227 186.284C424 174.399 434.112 163.249 448.135 160.719ZM439.626 189.419C445.693 189.536 449.564 190.139 454.261 185.678C455.528 182.137 456.869 177.238 454.858 173.695L454.193 173.481C449.922 175.186 436.776 184.47 438.567 189.145L439.626 189.419Z"/><path fill="#FEFEFE" d="M868.149 162.801C871.554 162.924 876.343 164.089 879.891 164.591C884.234 165.378 896.255 164.552 899.261 167.968C904.746 174.202 900.177 190.569 894.463 195.486C890.956 198.504 879.042 195.873 876.308 192.245C875.192 188.687 879.797 184.398 880.682 180.914C882.309 174.505 874.607 174.421 870.803 177.304C860.964 184.762 852.83 197.09 849.236 208.86C847.6 214.22 846.972 223.68 854.41 224.418C862.564 225.524 868.374 221.425 874.631 216.846C877.643 213.756 883.163 208.401 887.536 208.153C894.757 207.744 896.856 212.397 892.272 217.853C885.348 226.232 878.17 235.014 866.447 235.766C856.001 236.547 827.124 233.137 827.299 218.224C827.516 199.666 844.095 172.456 861.13 164.07C862.957 163.171 866.105 162.962 868.149 162.801Z"/><path fill="#FEFEFE" d="M474.313 251.403C478.986 251.197 488.175 250.91 489.073 256.858C488.68 258.66 487.181 259.88 485.866 261.218C474.036 254.886 464.409 262.282 469.313 275.549C470.543 278.877 474.603 280.238 477.875 281.097C482.018 279.993 484.198 276.886 487.907 278.935C488.92 279.974 490.127 281.421 491.114 282.535C467.957 303.682 441.322 261.076 474.313 251.403Z"/><path fill="#FEFEFE" d="M356.792 251.427C359.133 251.301 368.643 252.132 368.473 255.582C368.02 264.737 352.937 251.819 353.415 262.535C355.808 266.704 363.515 266.141 366.423 269.246C376.652 280.165 365.877 287.664 355.137 287.902C351.318 287.365 344.713 286.686 344.672 281.916C345.345 280.165 347.018 279.069 348.498 277.866C352.235 280.175 357.398 283.401 361.373 278.778C362.038 278.005 361.789 277.614 361.635 276.672C358.904 272.888 353.184 272.187 349.38 269.65C344.658 266.502 342.805 262.497 346.123 257.416C349.019 252.983 352 252.513 356.792 251.427Z"/><path fill="#FEFEFE" d="M648.715 266.001C651.264 261.531 653.817 253.87 659.002 252.307C659.933 252.027 664.047 252.244 665.256 252.295C662.714 257.042 659.501 262.154 656.69 266.757C654.301 269.853 653.527 271.02 653.065 275.043C652.41 280.751 654.527 289.659 645.531 286.668C643.579 285.03 644.741 278.346 644.366 275.553C643.226 267.067 634.848 260.854 632.423 252.389C642.562 251.77 642.352 253.812 646.902 262.547C647.475 263.646 648.132 264.89 648.715 266.001Z"/><path fill="#FEFEFE" d="M581.776 252.439C583.723 252.326 586.858 252.03 588.52 252.968C589.888 255.666 589.245 275.133 589.2 279.659C594.232 280.621 598.382 279.429 602.082 280.972C604.065 283.119 603.976 285.072 601.906 287.085C595.112 286.916 588.273 287.052 581.405 286.887C580.695 281.969 580.336 256.44 581.776 252.439Z"/><path fill="#FEFEFE" d="M531.125 252.401C532.567 252.29 537.742 251.781 537.912 253.526C538.458 259.142 539.576 282.995 537.79 287.058C534.941 287.254 533.314 286.965 530.477 286.573C530.342 280.76 529.675 256.612 531.125 252.401Z"/><path fill="#FEFEFE" d="M411.294 252.381C412.951 252.258 416.96 252.026 417.273 252.784C419.013 257.007 418.676 285.007 417.141 287.087C415.048 287.094 412.162 287.388 410.786 285.721C409.997 281.494 409.74 255.888 411.294 252.381Z"/><path fill="#FEFEFE" fill-opacity="0.0078431377" d="M180.357 186.142C182.756 181.741 184.753 178.576 187.531 174.392C188.455 175.103 189.105 175.679 190.197 176.107C187.37 179.589 183.719 183.185 180.357 186.142Z"/></svg>