<?xml version="1.0" encoding="utf-8" ?><svg xmlns="http://www.w3.org/2000/svg" xmlns:xlink="http://www.w3.org/1999/xlink" width="1024" height="326" viewBox="0 0 1024 326"><path fill="#12438D" d="M593.023 68.531C598.731 68.6147 601.219 70.4466 605.61 73.7051C617.979 70.5406 637.463 66.7587 649.855 71.2487C652.652 72.262 661.652 79.9813 665.859 81.6118C671.404 83.7604 669.37 96.1527 667.045 101.296C659.71 117.523 646.912 124.408 631.157 130.508C640.553 134.521 650.704 138.645 658.856 144.929C662.536 147.766 666.642 151.735 667.228 156.606C667.961 162.696 663.264 165.852 660.376 170.425C659.073 172.488 658.492 174.922 656.905 176.833C652.257 182.433 635.811 184.252 628.822 184.968C617.507 186.127 568.456 187.712 560.976 181.232C559.177 179.673 559.117 177.244 559.009 175.058L558.431 174.85L555.768 177.255C551.151 180.491 546.238 181.748 540.823 182.341C517.955 184.846 531.068 173.996 534.243 162.11C534.806 160.001 533.904 154.625 535.632 152.757C539.512 148.563 548.956 148.115 554.002 147.585C560.149 140.008 577.473 106.269 581.253 97.0252C571.572 99.9932 561.016 104.026 552.325 109.273C550.032 110.658 546.103 113.163 545.446 115.96C545.427 116.038 545.411 116.117 545.393 116.196C544.565 119.85 546.885 124.058 545.677 127.498C545.357 128.41 544.687 129.194 543.783 129.586C541.171 130.716 537.807 130.127 535.281 129.045C529.925 126.75 522.953 120.377 520.845 114.887C520.011 112.715 520.138 110.351 521.092 108.245C527.146 94.8833 572.043 82.4278 586.705 77.0333C587.618 71.8713 588.278 70.8185 593.023 68.531ZM620.563 170.164C625.877 169.64 655.111 167.782 640.291 157.278C628.209 148.716 612.5 142.043 598.435 137.342C597.288 136.968 589.673 136.935 588.264 136.921C586.561 135.317 585.356 134.221 583.9 132.384C578.037 143.411 570.162 156.928 562.876 167.081C575.479 160.586 578.102 165.682 589.556 169.709C595.293 171.726 614.642 171.332 620.563 170.164ZM605.337 90.2394C600.041 101.33 594.413 111.983 589.094 122.95C593.862 120.398 596.663 118.785 602.32 119.031C614.357 121.827 613.953 124.551 627.289 116.784C636.82 111.232 643.633 101.865 646.214 91.1618C646.513 89.9207 646.679 89.0998 646.35 87.7913C644.116 85.2294 637.083 85.591 633.862 85.6962C624.671 86.6011 614.338 88.0587 605.337 90.2394Z"/><path fill="#12438D" d="M356.528 72.676C361.917 72.4209 374.954 74.3254 377.813 80.0588C380.894 86.2357 369.1 86.0762 366.397 87.6952C358.615 92.356 351.976 104.6 348.188 112.767C358.559 113.46 368.973 113.064 379.26 111.583C386.137 98.9369 392.177 84.4168 403.719 75.2991C411.049 69.5081 433.497 75.0591 431.211 83.5396C429.225 86.6042 423.685 86.0565 421.026 87.1131C412.736 90.407 404.988 105.703 400.906 112.937C404.84 113.107 420.874 111.928 422.87 114.569C432.321 127.077 400.973 124.86 394.359 125.054C388.141 138.056 380.117 155.534 377.934 169.523C385.783 166.396 392.661 158.923 400.07 158.52C401.525 158.441 403.764 161.401 404.715 162.675C405.118 162.036 405.358 160.87 405.524 160.119C406.662 154.98 408.811 150.476 410.97 145.686C409.983 144.803 408.631 143.609 408.361 142.258C408.156 141.246 408.372 140.194 408.96 139.344C410.473 137.159 414.117 136.499 416.514 136.108C424.76 125.546 433.03 112.5 447.813 110.331C449.655 110.06 454.365 111.178 455.788 110.93C475.523 107.496 475.666 110.321 475.079 129.365C473.451 153.116 447.698 150.792 431.265 149.886C431.12 150.146 430.981 150.41 430.846 150.676C428.952 154.435 425.027 164.601 426.128 168.564C427.69 174.188 440.341 168.066 443.75 166.552C451.653 162.654 460.176 155.393 466.963 152.29C477.924 147.28 481.907 156.54 469.846 164.755C458.101 172.755 444.929 185.398 429.349 184.952C423.631 184.788 410.376 178.167 406.209 173.912C403.736 170.76 404.035 168.693 404.497 165.01C400.053 170.99 388.879 179.545 382.025 182.603C376.197 185.203 370.499 184.952 364.598 182.683C361.441 181.47 356.727 179.574 355.318 176.232C352.301 169.077 368.147 134.164 371.673 125.519C360.479 123.955 352.09 124.445 340.799 125.084C335.455 138.061 326.238 155.93 324.692 169.62C329.733 167.204 333.963 164.015 338.721 161.153C341.427 159.525 344.255 158.063 347.483 158.926C348.75 159.265 349.742 159.762 350.4 160.93C350.848 161.726 350.793 162.973 350.52 163.829C348.46 170.276 333.826 180.07 327.61 183.081C322.821 185.401 318.018 184.929 313.084 183.209C309.389 181.922 303.574 179.945 301.857 176.175C298.618 169.062 314.983 134.136 318.353 125.504C315.539 125.518 311.885 125.705 309.419 124.177C307.994 123.278 307.002 121.834 306.675 120.182C305.32 113.405 321.101 112.076 325.775 111.288C334.038 99.9283 340.682 75.7972 356.528 72.676ZM438.964 139.007C448.956 139.034 455.924 139.695 455.408 126.767C455.374 125.927 455.362 124.176 454.875 123.541C447.135 126.719 443.104 130.661 438.394 137.955C438.325 138.062 438.222 138.528 438.196 138.68L438.964 139.007Z"/><path fill="#12438D" d="M99.1335 67.1798C105.398 66.3439 111.676 68.3147 117.313 70.7662C124.891 66.3584 140.12 70.0597 138.753 80.6262C137.731 88.5278 134.749 98.2758 128.793 103.81C123.64 108.598 110.51 107.434 105.118 103.554C101.251 100.464 114.176 91.2027 113.046 86.0879C112.763 84.8082 113.781 84.6046 112.328 82.9063C95.342 78.7576 49.9579 113.9 41.3113 128.715C38.4917 132.781 32.6989 141.733 32.0767 146.445C27.0762 184.311 94.7601 140.525 104.034 135C94.3589 134.83 82.7014 137.762 74.3903 132.818C69.1826 129.72 68.2959 120.763 75.2695 121.068C90.8593 121.748 106.248 122.456 121.86 121.203C129.151 114.717 131.063 117.612 139.657 119.799C156.453 124.071 157.383 132.338 138.617 134.101C135.742 136.823 126.223 164.173 123.178 169.91C118.29 179.119 111.574 197.003 101.388 202.214C93.4188 206.29 76.8624 200.545 69.2229 196.923C65.708 195.411 60.9179 192.656 62.9137 188.297C66.2335 181.047 78.4728 188.802 82.3319 186.456C93.3666 179.748 102.74 160.793 108.636 149.73C91.0832 161.626 70.3814 172.696 48.8544 175.706C36.2621 177.467 23.8179 171.592 13.39 164.766C10.3625 162.656 6.11945 157.557 6.08276 153.663C5.73571 116.816 68.4015 70.4754 99.1335 67.1798Z"/><path fill="#12438D" d="M728.633 110.738C731.467 110.768 734.048 110.542 736.371 112.233C737.945 114.422 737.94 126.542 737.781 129.827C736.618 153.906 709.68 151.334 693.476 150.418C691.528 155.628 687.301 165.942 688.636 171.138L689.561 171.66C697.727 172.475 712.63 164.164 719.4 159.66C723.251 157.097 727.269 153.983 731.425 151.827C734.23 150.371 735.707 151.106 738.561 152.135C738.981 151.458 739.415 150.789 739.863 150.13C749.041 136.49 769.445 116.301 786.177 112.122C793.74 110.232 801.594 115.388 807.66 119.508C808.729 118.377 809.799 117.202 811.261 116.583C814.712 115.122 819.447 117.029 822.753 118.396C824.95 119.304 827.952 120.923 828.831 123.269C830.467 127.638 817.89 149.703 815.274 155.296C818.214 153.05 822.206 150.657 826.01 152.263C829.628 156.645 822.554 162.96 819.693 166.296C814.607 172.91 810.109 186.419 802.04 185.35C780.415 182.483 788.329 169.627 793.779 156.083C782.879 164.917 773.427 172.466 760.87 180.354C750.936 186.594 739.339 188.217 730.669 177.646C728.658 175.195 729.94 169.881 730.717 166.869C721.731 173.408 715.017 178.524 703.871 183.443C693.213 188.147 672.888 182.336 667.269 171.785C664.569 166.715 671.206 151.648 673.893 145.967C671.739 144.107 670.768 143.122 671.647 140.31C673.832 137.764 676.397 137.362 679.562 136.735C685.64 126.777 698.567 112.058 710.534 111.191C715.823 110.809 722.451 111.375 728.633 110.738ZM750.239 171.592C753.729 170.19 755.245 169.533 758.414 167.402C772.336 157.413 792.663 141.375 803.176 127.968C799.414 127.062 796.917 126.283 792.982 126.585C778.28 132.968 757.47 152.985 751.532 167.97C751.049 169.158 750.617 170.367 750.239 171.592ZM703.135 139.816C714.81 139.263 718.683 138.928 718.553 125.679C718.549 125.309 718.316 124.857 718.138 124.552L716.81 124.482C712.409 126.237 701.444 134.429 701.405 139.25C702.16 139.683 702.271 139.757 703.135 139.816Z"/><path fill="#12438D" d="M190.853 124.545C201.035 113.387 206.857 106.653 221.662 111.297C234.304 115.264 228.791 128.463 226.158 137.109C232.064 126.992 239.797 114.78 251.766 111.32C259.098 109.201 264.278 112.292 270.385 115.712C282.139 111.805 296.344 110.254 301.907 124.29C305.045 132.209 300.94 143.15 297.58 150.676C291.502 164.293 280.436 177.012 266.271 182.458C254.496 186.303 237.884 184.709 226.721 179.729C210.175 172.347 215.562 157.199 221.719 144.492C218.386 145.623 216.351 145.347 213.077 144.312C201.008 140.494 203.969 135.324 208.211 126.79C201.658 131.651 190.337 145.294 185.511 152.06C183.279 155.162 181.177 158.354 179.211 161.63C171.458 174.752 168.458 189.806 151.396 181.802C144.113 178.386 144.792 176.529 146.939 169.485C150.342 158.325 155.114 148.412 159.734 137.839L159.49 137.28C154.475 140.486 149.028 136.073 151.548 132.165C155.096 127.1 160.648 123.086 165.101 119.036C173.482 111.416 178.905 109.756 189.092 115.617C192.854 117.781 189.191 121.953 187.551 124.373C185.203 128.177 182.916 132.018 180.692 135.896C184.18 132.204 187.568 128.419 190.853 124.545ZM255.311 131.053C248.255 138.27 232.402 162.935 241.523 171.915C241.661 172.051 241.8 172.183 241.942 172.314C262.038 177.459 282.972 142.438 281.63 125.721C281.059 125.187 281.229 125.171 280.614 125.127C272.276 126.123 263.583 129.809 255.311 131.053Z"/><path fill="#12438D" d="M977.067 47.1797C982.717 47.43 1004.68 55.5442 1002.69 63.0988C1000.92 69.7717 986.847 61.1561 980.393 65.3172C962.432 76.8971 951.005 100.044 940.746 118.158C936.848 125.378 932.366 137.097 929.657 144.075C938.275 133.519 954.101 120.543 966.576 114.767C974.501 110.818 979.224 113.24 986.779 115.856C1002.42 121.273 992.739 141.125 988.205 152.283C990.135 151.04 991.802 149.777 994.018 149.462C997.36 148.795 1000.15 154.334 997.94 156.522C988.532 165.822 979.632 175.447 970.787 185.267C967.747 188.643 962.13 187.035 958.365 185.712C955.448 184.319 952.151 182.935 950.198 180.326C949.296 176.358 955.345 171.252 957.499 167.144C964.809 153.204 971.355 141.656 974.462 126.167C954.559 132.791 930.488 161.969 920.627 179.659C916.97 186.219 908.585 183.254 903.3 180.013C895.572 175.597 901.793 163.886 903.719 156.843C911.728 127.557 945.211 51.3892 977.067 47.1797Z"/><path fill="#12438D" d="M866.934 112.645C870.205 112.524 876.382 114.306 880.15 114.614C884.569 115.076 888.934 114.937 893.339 115.607C897.752 116.279 900.599 117.107 901.567 122.061C902.754 129.821 900.969 135.024 897.459 142.047C893.588 149.793 883.313 147.053 877.336 144.05C871.654 141.196 881.476 133.829 880.673 127.103C878.667 124.537 872.496 125.991 870.151 127.806C861.276 134.674 851.558 149.157 849.135 160.164C844.494 181.251 862.525 175.415 873.417 167.732C877.024 164.456 881.539 159.223 886.286 158.094C894.16 156.221 897.399 161.826 892.614 167.766C887.839 173.694 878.286 184.556 870.541 185.592C859.55 187.018 842.151 185.257 833.059 179.087C817.94 168.828 834.549 140.89 842.314 130.279C848.432 121.917 856.295 114.179 866.934 112.645Z"/><path fill="#12438D" d="M475.223 201.117C481.906 200.541 485.853 202.088 491.121 205.897C489.594 207.62 487.248 209.828 485.571 211.504C484.575 210.857 482.542 209.545 481.472 209.169C478.895 208.281 476.07 208.464 473.628 209.677C463.284 214.872 467.657 232.319 479.456 230.135C481.813 229.699 483.712 228.346 485.772 227.195L486.797 227.682C488.249 228.871 489.699 229.861 490.557 231.523C490.236 235.25 484.145 237.367 480.912 237.912C475.839 238.784 470.628 237.591 466.442 234.597C462.423 231.732 459.743 227.356 459.018 222.474C457.225 210.795 463.834 202.903 475.223 201.117Z"/><path fill="#12438D" d="M356.482 201.175C361.981 200.706 365.457 202.342 370.096 204.87C368.716 206.662 366.684 208.637 365.073 210.29C361.715 208.524 353.953 205.196 353.322 211.684C355.913 216.634 370.457 217.355 370.292 226.425C370.131 235.266 363.183 237.462 355.677 237.941C349.778 237.31 347.67 236.387 342.82 233.017C344.579 231.104 346.519 229.259 348.383 227.439C350.915 229.236 352.988 231.289 356.302 231.156C359.23 231.038 361.681 229.906 361.474 226.634C358.678 221.755 345.45 221.763 344.696 213.403C343.946 205.091 349.253 202.222 356.482 201.175Z"/><path fill="#12438D" d="M630.779 202.018C634.232 201.895 637.706 201.978 641.162 202.028C643.453 205.749 646.468 211.64 648.617 215.569C651.106 210.896 653.413 206.515 656.242 202.02C659.268 201.943 662.682 202.011 665.736 202.01C663.411 206.297 659.582 211.863 656.856 216.065C651.182 223.937 652.444 227.133 652.894 236.931L643.994 237.083C644.058 232.086 644.011 227.087 643.854 222.092L630.779 202.018Z"/><path fill="#12438D" d="M580.564 201.934C583.307 201.703 586.55 201.838 589.339 201.882C589.028 210.779 589.247 220.92 589.237 229.911L602.991 229.874L603.219 236.074L603.084 236.422C601.048 237.831 584.24 237.109 580.629 237.079C580.776 226.283 581.217 212.57 580.564 201.934Z"/><path fill="#12438D" d="M411.034 201.752C413.29 201.652 416.07 201.727 418.369 201.725C418.621 210.01 418.313 218.454 418.462 226.754C418.517 229.825 418.599 233.539 418.291 236.562L417.535 237.033L409.648 237.107C409.315 229.519 409.331 209.475 410.168 202.312L411.034 201.752Z"/><path fill="#12438D" d="M529.94 202.009C532.735 201.772 535.616 201.825 538.426 201.83C538.572 205.986 539.164 235.245 537.984 237.093C535.509 236.999 532.454 237.134 529.933 237.178C530.209 225.796 529.955 213.463 529.94 202.009Z"/><path fill="#032E6E" d="M538.426 201.83C538.572 205.986 539.164 235.245 537.984 237.093C536.9 234.32 537.238 204.417 538.426 201.83Z"/><path fill="#032E6E" fill-opacity="0.023529412" d="M180.692 135.896C182.916 132.018 185.203 128.177 187.551 124.373C188.819 124.301 189.841 124.03 190.853 124.545C187.568 128.419 184.18 132.204 180.692 135.896Z"/></svg>